# xmcd CD Database Entry
#
# Track frame offsets:
# 150
# 23717
# 45570
# 80395
# 100684
# 115774
# 132932
# 137861
# 154305
# 162323
# 180953
# 214616
# 245734
# 266884
# 295010
# 319562
#
# Disc length: 4770 seconds
#
# Revision: 1
# Processed by: cddbd v1.4PL0 Copyright (c) Steve Scherf et al.
# Submitted via: tcd 2.0b
#
DISCID=d812a010
DTITLE=Various Artist - Aileron
DYEAR=1900
DGENRE=
TTITLE0=mu-ziq - Hasty Boom Alert
TTITLE1=Squarepusher - Tomorrow World
TTITLE2=Photek - KJZ
TTITLE3=Jega - Geometry
TTITLE4=Isan - Salamander
TTITLE5=Autechre - KonleidMX
TTITLE6=Boards of Canada - In the Annexe
TTITLE7=Aphex Twin - Fingerbib
TTITLE8=Arovane - Tomorrow Morning
TTITLE9=Boards of Canada - The Beach at Redpoint
TTITLE10=Orb - Oxbow Lakes
TTITLE11=Mum - Asleep on a Train
TTITLE12=Dntel - Last Songs
TTITLE13=Neina - Clairvoyance
TTITLE14=Seefeel - Air Eyes
TTITLE15=Robert Fripp - Bringing Down the Light
EXTD=
EXTT0=
EXTT1=
EXTT2=
EXTT3=
EXTT4=
EXTT5=
EXTT6=
EXTT7=
EXTT8=
EXTT9=
EXTT10=
EXTT11=
EXTT12=
EXTT13=
EXTT14=
EXTT15=
PLAYORDER=
